<svg aria-hidden="true" style="position: absolute; width: 0; height: 0; overflow: hidden;" version="1.1" xmlns="http://www.w3.org/2000/svg" xmlns:xlink="http://www.w3.org/1999/xlink">
<defs>
<symbol id="icon-check" viewBox="0 0 32 32">
<path d="M16 0c-8.836 0-16 7.164-16 16s7.164 16 16 16 16-7.164 16-16-7.164-16-16-16zM13.52 23.383l-7.362-7.363 2.828-2.828 4.533 4.535 9.617-9.617 2.828 2.828-12.444 12.445z"></path>
</symbol>
<symbol id="icon-settings" viewBox="0 0 28 28">
<path d="M26.863 11.725l-3.238-0.438c-0.262-0.612-0.438-1.137-0.7-1.75 0.612-0.787 1.313-1.662 1.837-2.45 0.088-0.087 0.088-0.263 0.088-0.35s0-0.262-0.088-0.35c-0.7-1.050-2.012-2.1-2.887-2.975-0.088-0.087-0.262-0.262-0.438-0.262-0.262 0-0.35 0-0.438 0.087l-2.363 1.75c-0.438-0.262-1.050-0.438-1.662-0.7l-0.438-3.238c0-0.263-0.262-0.438-0.612-0.438v0h-3.938c-0.35 0-0.612 0.263-0.612 0.438-0.35 1.050-0.438 2.188-0.613 3.238-0.438 0.262-1.050 0.438-1.662 0.7l-2.362-1.837c-0.087-0.087-0.263-0.262-0.438-0.262-0.612 0-3.063 2.537-3.413 3.15-0.087 0.262-0.087 0.35-0.087 0.438s0.087 0.35 0.262 0.525c0.7 0.787 1.313 1.662 1.837 2.45-0.35 0.438-0.613 1.050-0.7 1.662l-3.412 0.438c-0.262 0-0.437 0.35-0.437 0.612v3.937c0 0.35 0.263 0.613 0.437 0.613l3.237 0.438c0.262 0.612 0.438 1.137 0.7 1.75-0.612 0.787-1.312 1.662-1.837 2.45-0.087 0.088-0.087 0.263-0.087 0.35s0 0.263 0.087 0.35c0.7 1.050 2.013 2.1 2.888 3.063 0.087 0.087 0.262 0.262 0.438 0.262 0.087 0 0.35 0 0.438-0.088l2.538-1.837c0.438 0.262 1.050 0.438 1.662 0.7l0.438 3.238c0 0.35 0.35 0.612 0.612 0.612h3.938c0.35 0 0.612-0.262 0.612-0.438 0.263-1.050 0.35-2.188 0.438-3.237 0.613-0.263 1.050-0.438 1.663-0.7l2.45 1.838c0.088 0.088 0.35 0.088 0.438 0.088 0.613 0 3.063-2.538 3.412-3.15 0.088-0.088 0.088-0.262 0.088-0.35s-0.088-0.35-0.262-0.438c-0.7-0.788-1.313-1.663-1.838-2.45 0.262-0.438 0.438-1.050 0.7-1.662l3.238-0.438c0.262 0 0.438-0.35 0.438-0.613v-3.937c0.088-0.525-0.175-0.787-0.35-0.787zM13.912 18.725c-2.45 0-4.55-2.1-4.55-4.55s2.1-4.55 4.55-4.55c2.45 0 4.55 2.1 4.55 4.55s-2.1 4.55-4.55 4.55z"></path>
</symbol>
<symbol id="icon-stop" viewBox="0 0 28 28">
<path d="M14 0.875c7.262 0 13.125 5.862 13.125 13.125s-5.863 13.125-13.125 13.125-13.125-5.863-13.125-13.125 5.862-13.125 13.125-13.125zM14 0c-7.7 0-14 6.3-14 14s6.3 14 14 14 14-6.3 14-14-6.3-14-14-14v0z"></path>
<path d="M18.375 9.625v8.75h-8.75v-8.75h8.75zM19.25 8.75h-10.5v10.5h10.5v-10.5z"></path>
</symbol>
<symbol id="icon-pause" viewBox="0 0 28 28">
<path d="M14 0.875c7.262 0 13.125 5.862 13.125 13.125s-5.863 13.125-13.125 13.125-13.125-5.863-13.125-13.125 5.862-13.125 13.125-13.125zM14 0c-7.7 0-14 6.3-14 14s6.3 14 14 14 14-6.3 14-14-6.3-14-14-14v0z"></path>
<path d="M11.375 9.625v8.75h-1.75v-8.75h1.75zM12.25 8.75h-3.5v10.5h3.5v-10.5z"></path>
<path d="M18.375 9.625v8.75h-1.75v-8.75h1.75zM19.25 8.75h-3.5v10.5h3.5v-10.5z"></path>
</symbol>
<symbol id="icon-play" viewBox="0 0 28 28">
<path d="M13.822 27.376c-7.401 0-13.465-6.064-13.465-13.465s6.064-13.465 13.465-13.465 13.465 6.064 13.465 13.465c0 7.401-6.064 13.465-13.465 13.465zM13.822 1.338c-6.955 0-12.573 5.618-12.573 12.573s5.618 12.573 12.573 12.573c6.955 0 12.573-5.618 12.573-12.573s-5.618-12.573-12.573-12.573z"></path>
<path d="M11.057 20.064c-0.089 0-0.268 0-0.357-0.089-0.178-0.178-0.357-0.357-0.357-0.624v-10.879c0-0.268 0.178-0.535 0.446-0.624 0.178-0.089 0.446-0.089 0.624 0.089l9.096 5.529c0.178 0.089 0.357 0.357 0.357 0.624s-0.178 0.535-0.357 0.624l-9.096 5.35c-0.178 0-0.268 0-0.357 0zM11.236 8.828v10.166l8.471-4.994-8.471-5.172zM19.975 14.178c0.089 0 0.089 0 0 0v0zM19.975 13.911c0 0 0 0 0 0v0z"></path>
</symbol>
</defs>
</svg>
