<svg aria-hidden="true" style="position: absolute; width: 0; height: 0; overflow: hidden;" version="1.1" xmlns="http://www.w3.org/2000/svg" xmlns:xlink="http://www.w3.org/1999/xlink">
<defs>
<symbol id="icon-stop" viewBox="0 0 28 28">
<path d="M14 0.875c7.262 0 13.125 5.862 13.125 13.125s-5.863 13.125-13.125 13.125-13.125-5.863-13.125-13.125 5.862-13.125 13.125-13.125zM14 0c-7.7 0-14 6.3-14 14s6.3 14 14 14 14-6.3 14-14-6.3-14-14-14v0z"></path>
<path d="M18.375 9.625v8.75h-8.75v-8.75h8.75zM19.25 8.75h-10.5v10.5h10.5v-10.5z"></path>
</symbol>
<symbol id="icon-pause" viewBox="0 0 28 28">
<path d="M14 0.875c7.262 0 13.125 5.862 13.125 13.125s-5.863 13.125-13.125 13.125-13.125-5.863-13.125-13.125 5.862-13.125 13.125-13.125zM14 0c-7.7 0-14 6.3-14 14s6.3 14 14 14 14-6.3 14-14-6.3-14-14-14v0z"></path>
<path d="M11.375 9.625v8.75h-1.75v-8.75h1.75zM12.25 8.75h-3.5v10.5h3.5v-10.5z"></path>
<path d="M18.375 9.625v8.75h-1.75v-8.75h1.75zM19.25 8.75h-3.5v10.5h3.5v-10.5z"></path>
</symbol>
<symbol id="icon-play" viewBox="0 0 28 28">
<path d="M13.822 27.376c-7.401 0-13.465-6.064-13.465-13.465s6.064-13.465 13.465-13.465 13.465 6.064 13.465 13.465c0 7.401-6.064 13.465-13.465 13.465zM13.822 1.338c-6.955 0-12.573 5.618-12.573 12.573s5.618 12.573 12.573 12.573c6.955 0 12.573-5.618 12.573-12.573s-5.618-12.573-12.573-12.573z"></path>
<path d="M11.057 20.064c-0.089 0-0.268 0-0.357-0.089-0.178-0.178-0.357-0.357-0.357-0.624v-10.879c0-0.268 0.178-0.535 0.446-0.624 0.178-0.089 0.446-0.089 0.624 0.089l9.096 5.529c0.178 0.089 0.357 0.357 0.357 0.624s-0.178 0.535-0.357 0.624l-9.096 5.35c-0.178 0-0.268 0-0.357 0zM11.236 8.828v10.166l8.471-4.994-8.471-5.172zM19.975 14.178c0.089 0 0.089 0 0 0v0zM19.975 13.911c0 0 0 0 0 0v0z"></path>
</symbol>
<symbol id="icon-settings" viewBox="0 0 24 28">
<path d="M16 14c0-2.203-1.797-4-4-4s-4 1.797-4 4 1.797 4 4 4 4-1.797 4-4zM24 12.297v3.469c0 0.234-0.187 0.516-0.438 0.562l-2.891 0.438c-0.172 0.5-0.359 0.969-0.609 1.422 0.531 0.766 1.094 1.453 1.672 2.156 0.094 0.109 0.156 0.25 0.156 0.391s-0.047 0.25-0.141 0.359c-0.375 0.5-2.484 2.797-3.016 2.797-0.141 0-0.281-0.063-0.406-0.141l-2.156-1.687c-0.453 0.234-0.938 0.438-1.422 0.594-0.109 0.953-0.203 1.969-0.453 2.906-0.063 0.25-0.281 0.438-0.562 0.438h-3.469c-0.281 0-0.531-0.203-0.562-0.469l-0.438-2.875c-0.484-0.156-0.953-0.344-1.406-0.578l-2.203 1.672c-0.109 0.094-0.25 0.141-0.391 0.141s-0.281-0.063-0.391-0.172c-0.828-0.75-1.922-1.719-2.578-2.625-0.078-0.109-0.109-0.234-0.109-0.359 0-0.141 0.047-0.25 0.125-0.359 0.531-0.719 1.109-1.406 1.641-2.141-0.266-0.5-0.484-1.016-0.641-1.547l-2.859-0.422c-0.266-0.047-0.453-0.297-0.453-0.562v-3.469c0-0.234 0.187-0.516 0.422-0.562l2.906-0.438c0.156-0.5 0.359-0.969 0.609-1.437-0.531-0.75-1.094-1.453-1.672-2.156-0.094-0.109-0.156-0.234-0.156-0.375s0.063-0.25 0.141-0.359c0.375-0.516 2.484-2.797 3.016-2.797 0.141 0 0.281 0.063 0.406 0.156l2.156 1.672c0.453-0.234 0.938-0.438 1.422-0.594 0.109-0.953 0.203-1.969 0.453-2.906 0.063-0.25 0.281-0.438 0.562-0.438h3.469c0.281 0 0.531 0.203 0.562 0.469l0.438 2.875c0.484 0.156 0.953 0.344 1.406 0.578l2.219-1.672c0.094-0.094 0.234-0.141 0.375-0.141s0.281 0.063 0.391 0.156c0.828 0.766 1.922 1.734 2.578 2.656 0.078 0.094 0.109 0.219 0.109 0.344 0 0.141-0.047 0.25-0.125 0.359-0.531 0.719-1.109 1.406-1.641 2.141 0.266 0.5 0.484 1.016 0.641 1.531l2.859 0.438c0.266 0.047 0.453 0.297 0.453 0.562z"></path>
</symbol>
</defs>
</svg>
